<?xml version="1.0" encoding="UTF-8" standalone="no"?>
<!-- Created with Inkscape (http://www.inkscape.org/) -->

<svg
   xmlns:dc="http://purl.org/dc/elements/1.1/"
   xmlns:cc="http://creativecommons.org/ns#"
   xmlns:rdf="http://www.w3.org/1999/02/22-rdf-syntax-ns#"
   xmlns:svg="http://www.w3.org/2000/svg"
   xmlns="http://www.w3.org/2000/svg"
   xmlns:sodipodi="http://sodipodi.sourceforge.net/DTD/sodipodi-0.dtd"
   xmlns:inkscape="http://www.inkscape.org/namespaces/inkscape"
   width="170px"
   height="170px"
   viewBox="0 0 170 170"
   version="1.1"
   id="SVGRoot"
   inkscape:version="0.92.5 (2060ec1f9f, 2020-04-08)"
   sodipodi:docname="logo-small.svg">
  <defs
     id="defs78" />
  <sodipodi:namedview
     id="base"
     pagecolor="#ffffff"
     bordercolor="#666666"
     borderopacity="1.0"
     inkscape:pageopacity="0.0"
     inkscape:pageshadow="2"
     inkscape:zoom="2.8"
     inkscape:cx="123.05498"
     inkscape:cy="125.12439"
     inkscape:document-units="px"
     inkscape:current-layer="layer1"
     showgrid="false"
     inkscape:window-width="1860"
     inkscape:window-height="1043"
     inkscape:window-x="60"
     inkscape:window-y="0"
     inkscape:window-maximized="1" />
  <metadata
     id="metadata81">
    <rdf:RDF>
      <cc:Work
         rdf:about="">
        <dc:format>image/svg+xml</dc:format>
        <dc:type
           rdf:resource="http://purl.org/dc/dcmitype/StillImage" />
        <dc:title></dc:title>
      </cc:Work>
    </rdf:RDF>
  </metadata>
  <g
     inkscape:label="Layer 1"
     inkscape:groupmode="layer"
     id="layer1">
    <g
       style="fill:#000000;stroke:none"
       id="g8"
       transform="matrix(0.01660371,0,0,-0.01653527,173.31487,165.51835)">
      <path
         style="fill:#292961;fill-opacity:1;stroke-width:1"
         id="path4-3"
         d="m -6249.0466,6978.8588 c -149,-28 -255,-135 -272,-274 l -3,-25 -175,-6 c -210,-7 -254,-20 -331,-98 -79,-78 -92,-121 -97,-333 l -4,-178 h -24 c -89,0 -215,-101 -250,-201 -28,-80 -28,-418 0,-498.0001 35,-99.9999 161,-200.9999 251,-200.9999 h 25 v -300 -300 h -25 c -90,0 -216,-101 -251,-201 -28,-80 -28,-418 0,-498 35,-100 161,-201 250,-201 h 24 l 4,-177.0001 c 5,-213 18,-256 97,-334 78,-79 121,-92 334,-97 l 177,-4 v -24 c 0,-89 101,-215 201,-250 80,-28 418,-28 498,0 100,35 201,161 201,251 v 25 h 295 295 v -25 c 0,-90 101,-216 201,-251 79,-28 428.0001,-28 507,-1 98.0001,35 202,163 202,251 v 24 l 178.0001,4 c 211.9999,5 254.9999,18 332.9999,97 79.0001,78 92,121 97.0001,334 l 3.9999,177.0001 h 24 c 88,0 216,104 251.0001,201.9999 27,79.0001 27,418.0001 -1.0001,498.0001 -36,102 -145,188 -256,201.9999 l -24.9999,3 -3,298.0001 -2.0001,297 h 25 c 90,0 216,101 251,200.9999 28,79.0001 28,418.0001 0,497.0001 -35,103 -159,202 -249.9999,202 h -24 l -4.0001,178 c -4.9999,209 -18,252 -94,332 -72,75 -120.9999,90 -328.9999,101 -93,4 -173.0001,8 -177,8 -5.0001,1 -8.0001,12 -8.0001,26 0,89 -102,217 -200,251 -46.9999,16 -84,19 -250,19 -241,0 -276,-9 -361,-94 -54,-55 -81.9999,-110 -90.9999,-181 l -3,-25 -220.0001,-3 c -121,-2 -253,0 -292,3 -69,6 -73,8 -73,31 0,84 -96,209 -191,246 -47,19 -77,22 -234,24 -99,1 -191,0 -205,-2 z m 283,-362 c 29,-30 32,-38 32,-97 0,-60 -3,-67 -33,-97 -30,-31 -37,-33 -102,-33 -65,0 -72,2 -101,31 -50,51 -54,150 -6,195 34,32 57,39 120,36 50,-3 62,-8 90,-35 z m 1462,24 c 47.0001,-20 68.0001,-65 63,-133 -3.9999,-44 -11,-60 -36.9999,-86 -29.0001,-30 -36,-32 -101.0001,-32 -65,0 -72,2 -102,33 -30,30 -33,37 -33,96 0,55 4,68 25,91 14,15 34,31 45,35 32,14 103,11 140,-4 z m -2015,-304 c 0,-11 9,-45 20,-77 27,-78 84,-135 170,-166 61,-22 78,-24 265,-24 185,0 204,2 258,24 101,40 187,149 187,236 v 25 h 295 295 v -25 c 0,-87 86,-196 187,-236 54,-22 73,-24 258,-24 187.0001,0 204,2 267,24 85.0001,31 140,86 168,167 11,31 20,66 20,77 0,18 5.0001,19 58,13 113,-13 221,-121 230,-231 4,-54 4,-55 -22,-55 -91,0 -217,-100 -251.9999,-201 -28.0001,-80 -28.0001,-418 0,-498.0001 34.9999,-99.9999 160.9999,-200.9999 250.9999,-200.9999 h 25 v -300 -300 h -25 c -88.9999,0 -217,-102 -250.9999,-200 -16.0001,-47.0001 -19.0001,-84 -19.0001,-250 0,-243 9,-275.0001 97.0001,-361 58.9999,-57 125.9999,-89 187.9999,-89 22,0 22,-3 16,-57 -13,-117.0001 -116,-217.0001 -235,-229.0001 l -64,-7 7,26 c 6,27 -28,137 -43,137 -11,0 -81,69.0001 -81,80 0,5.0001 -26,19.0001 -57,32.0001 -54,21 -72.9999,23 -263,23 -175,0 -213,-3 -259,-19.0001 -100,-34.9999 -201,-161 -201,-251 v -25 h -295 -295 v 25 c 0,90 -101,216.0001 -201,251 -80,28.0001 -418,28.0001 -498,0 -101,-34.9999 -201,-161 -201,-252 0,-27 0,-27 -57,-20 -114,13 -216,116 -229,229.0001 -7,57 -7,57 20,57 91,0 217,99.9999 252,201 28,80 28,418 0,498 -35,100 -161,201 -251,201 h -25 v 300 300 h 25 c 90,0 216,101 251,200.9999 28,80.0001 28,418.0001 0,498.0001 -35,101 -161,201 -252,201 -27,0 -27,0 -20,58 14,123 128,227 254,231 25,1 32,-3 32,-17 z m -347,-620 c 30,-30 32,-37 32,-102 0,-65 -2,-72 -33,-102.0001 -30,-30.9999 -37,-33 -102,-33 -65,0 -72,2.0001 -102,33 -31,30.0001 -33,37.0001 -33,101.0001 0,60 3,73 25,96 35,38 57,45 123,42 50,-3 62,-8 90,-35 z m 3290,0 c 30,-30 32.0001,-37 32.0001,-102 0,-65 -2.0001,-72 -33,-102.0001 -30,-30.9999 -37.0001,-33 -102,-33 -65.0001,0 -72,2.0001 -102,33 -31.0001,30.0001 -33.0001,37.0001 -33.0001,101.0001 0,60 3,73 25,96 35.0001,38 57,45 123,42 50.0001,-3 62.0001,-8 90,-35 z m -3290,-1500 c 30,-30 32,-37 32,-102 0,-65.0001 -2,-72 -33,-102 -30,-31 -37,-33 -102,-33 -65,0 -72,2 -102,33 -31,30 -33,36.9999 -33,101 0,60 3,73 25,96 35,38 57,45 123,42 50,-3 62,-8 90,-35 z m 3275,18 c 18,-11 37,-32 42,-46 15,-38 12,-121.0001 -5,-153 -34.9999,-69 -159,-81 -217.9999,-22.0001 -30,29.0001 -32.0001,36 -32.0001,100.0001 0,60 3,73 25,96 14,15 34.0001,31 45,35 37.0001,16 109.0001,11 143,-10 z m -2375,-918.0001 c 30,-30 32,-37 32,-102 0,-65 -2,-72 -33,-102 -30,-31 -37,-33 -102,-33 -65,0 -72,2 -102,33 -31,30 -33,37 -33,101 0,60 3,73 25,96 35,38 57,45 123,42 50,-3 62,-8 90,-35 z m 1490,-1 c 30,-29 32,-36 32,-101 0,-65 -2,-72 -33,-102 -30,-31 -36.9999,-33 -102,-33 -64,0 -72,2 -99,30 -33,33 -34,37 -32,112.0001 1,39.9999 7,57.9999 28,82.9999 35,42 57,50 121,47 44.0001,-3 59.0001,-9 85,-36 z"
         inkscape:connector-curvature="0" />
      <path
         style="fill:#292961;fill-opacity:1;stroke-width:1"
         id="path4-6"
         d="m -3839.0466,4564.8588 c -149,-28 -255,-135 -272.0001,-274 l -3,-25 -174.9999,-6 c -210,-7 -254,-20 -331,-98 -79,-78 -92,-121 -97,-333 l -4,-178 h -24 c -89,0 -215,-101 -250,-201 -28,-80 -28,-418 0,-498.0001 35,-99.9999 161,-200.9999 251,-200.9999 h 25 v -300 -300 h -25 c -90,0 -216,-101 -251,-201 -28,-80 -28,-418 0,-498 35,-100 161,-201 250,-201 h 24 l 4,-177 c 5,-213 18,-256 97,-334 78,-79 121,-92 334,-97 l 177,-4 v -24 c 0,-89 101,-215 201,-250 80,-28 418,-28 498,0 100,35 201,161 201,251 v 25 h 295 295 v -25 c 0,-90 101,-216 201,-251 79,-28 428.0001,-28 507,-1 98.0001,35 202,163 202,251 v 24 l 178.0001,4 c 211.9999,5 254.9999,18 332.9999,97 79.0001,78 92,121 97.0001,334 l 3.9999,177 h 24 c 88,0 216,104 251.0001,201.9999 27,79.0001 27,418.0001 -1.0001,498.0001 -36,102 -145,188 -256,201.9999 l -24.9999,3 -3,298.0001 -2.0001,297 h 25 c 90,0 216,101 251,200.9999 28,79.0001 28,418.0001 0,497.0001 -35,103 -159,202 -249.9999,202 h -24 l -4.0001,178 c -4.9999,209 -18,252 -94,332 -72,75 -120.9999,90 -328.9999,101 -93,4 -173.0001,8 -177,8 -5.0001,1 -8.0001,12 -8.0001,26 0,89 -102,217 -200,251 -46.9999,16 -84,19 -250,19 -241,0 -276,-9 -361,-94 -54,-55 -81.9999,-110 -90.9999,-181 l -3,-25 -220.0001,-3 c -121,-2 -253,0 -292,3 -69,6 -73,8 -73,31 0,84 -96,209 -191,246 -47,19 -77,22 -234,24 -99,1 -191,0 -205,-2 z m 283,-362 c 29,-30 32,-38 32,-97 0,-60 -3,-67 -33,-97 -30,-31 -37,-33 -102,-33 -65,0 -72,2 -101,31 -50,51 -54,150 -6,195 34,32 57,39 120,36 50,-3 62,-8 90,-35 z m 1462,24 c 47.0001,-20 68.0001,-65 63,-133 -3.9999,-44 -11,-60 -36.9999,-86 -29.0001,-30 -36,-32 -101.0001,-32 -65,0 -72,2 -102,33 -30,30 -33,37 -33,96 0,55 4,68 25,91 14,15 34,31 45,35 32,14 103,11 140,-4 z m -2015,-304 c 0,-11 9,-45 20,-77 27,-78 84,-135 170,-166 61,-22 78,-24 265,-24 185,0 204,2 258,24 101,40 187,149 187,236 v 25 h 295 295 v -25 c 0,-87 86,-196 187,-236 54,-22 73,-24 258,-24 187.0001,0 204,2 267,24 85.0001,31 140,86 168,167 11,31 20,66 20,77 0,18 5.0001,19 58,13 113,-13 221,-121 230,-231 4,-54 4,-55 -22,-55 -91,0 -217,-100 -251.9999,-201 -28.0001,-80 -28.0001,-418 0,-498.0001 34.9999,-99.9999 160.9999,-200.9999 250.9999,-200.9999 h 25 v -300 -300 h -25 c -88.9999,0 -217,-102 -250.9999,-200 -16.0001,-47.0001 -19.0001,-84 -19.0001,-250 0,-243 9,-275.0001 97.0001,-361 58.9999,-57 125.9999,-89 187.9999,-89 22,0 22,-3 16,-57 -13,-117 -116,-217 -235,-229 l -64,-7 7,26 c 6,27 -28,137 -43,137 -11,0 -81,69 -81,79.9999 0,5.0001 -26,19.0001 -57,32.0001 -54,21 -72.9999,23 -263,23 -175,0 -213,-3 -259,-19.0001 -100,-34.9999 -201,-160.9999 -201,-250.9999 v -25 h -295 -295 v 25 c 0,90 -101,216 -201,250.9999 -80,28.0001 -418,28.0001 -498,0 -101,-34.9999 -201,-160.9999 -201,-251.9999 0,-27 0,-27 -57,-20 -114,13 -216,116 -229,229 -7,57 -7,57 20,57 91,0 217,99.9999 251.9999,201 28.0001,80 28.0001,418 0,498 -34.9999,100 -160.9999,201 -250.9999,201 h -25 v 300 300 h 25 c 90,0 216,101 250.9999,200.9999 28.0001,80.0001 28.0001,418.0001 0,498.0001 -34.9999,101 -160.9999,201 -251.9999,201 -27,0 -27,0 -20,58 14,123 128,227 253.9999,231 25.0001,1 32.0001,-3 32.0001,-17 z m -347,-620 c 30,-30 32,-37 32,-102 0,-65 -2,-72 -33,-102.0001 -30,-30.9999 -37,-33 -102,-33 -65,0 -72,2.0001 -102,33 -31,30.0001 -33,37.0001 -33,101.0001 0,60 3,73 25,96 35,38 57,45 123,42 50,-3 62,-8 90,-35 z m 3290,0 c 30,-30 32.0001,-37 32.0001,-102 0,-65 -2.0001,-72 -33,-102.0001 -30,-30.9999 -37.0001,-33 -102,-33 -65.0001,0 -72,2.0001 -102,33 -31.0001,30.0001 -33.0001,37.0001 -33.0001,101.0001 0,60 3,73 25,96 35.0001,38 57,45 123,42 50.0001,-3 62.0001,-8 90,-35 z m -3290,-1500 c 30,-30 32,-37 32,-102 0,-65.0001 -2,-72 -33,-102 -30,-31 -37,-33 -102,-33 -65,0 -72,2 -102,33 -31,30 -33,36.9999 -33,101 0,60 3,73 25,96 35,38 57,45 123,42 50,-3 62,-8 90,-35 z m 3275,18 c 18,-11 37,-32 42,-46 15,-38 12,-121.0001 -5,-153 -34.9999,-69 -159,-81 -217.9999,-22.0001 -30,29.0001 -32.0001,36 -32.0001,100.0001 0,60 3,73 25,96 14,15 34.0001,31 45,35 37.0001,16 109.0001,11 143,-10 z m -2375,-918 c 30,-30 32,-37 32,-102 0,-65 -2,-72 -33,-102 -30,-31 -37,-33 -102,-33 -65,0 -72,2 -102,33 -31,30 -33,37 -33,101 0,60 3,73 25,96 35,38 57,45 123,42 50,-3 62,-8 90,-35 z m 1490,-1 c 30,-29 32,-36 32,-101 0,-65 -2,-72 -33,-102 -30,-31 -36.9999,-33 -102,-33 -64,0 -72,2 -99,30 -33,33 -34,37 -32,112 1,40 7,58 28,83 35,42 57,50 121,47 44.0001,-3 59.0001,-9 85,-36 z"
         inkscape:connector-curvature="0" />
      <path
         style="fill:#292961;fill-opacity:1;stroke-width:1"
         id="path4-7"
         d="m -8611.0466,4554.8588 c -149,-28 -254.9999,-135 -272,-274 l -3,-25 -174.9999,-6 c -210,-7 -254.0001,-20 -331,-98 -79,-78 -92.0001,-121 -97,-333 l -4.0001,-178 h -24 c -89,0 -215,-101 -250,-201 -28,-80 -28,-418 0,-498.0001 35,-99.9999 161,-200.9999 251,-200.9999 h 25 v -300 -300 h -25 c -90,0 -216,-101 -251,-201 -28,-80 -28,-418 0,-498 35,-100 161,-201 250,-201 h 24 l 4.0001,-177 c 4.9999,-213.00004 18,-256.00002 97,-334.00002 77.9999,-78.99998 121,-92.00003 334,-96.99998 l 177,-4.00005 v -24 c 0,-88.99995 100.9999,-214.99996 200.9999,-249.99999 80,-27.99997 418,-27.99997 498,0 100,35.00003 201,161.00004 201,251.00004 v 24.99997 h 295 295 V 605.8588 c 0,-90 101,-216.00001 201,-251.00004 79,-27.99997 428.0001,-27.99997 507,-0.99997 98.0001,34.99995 202,162.99998 202,250.99996 v 24 l 178.0001,4.00005 c 211.9999,4.99995 254.9999,18 332.9999,96.99998 79.0001,78 92,120.99998 97.0001,334.00002 l 3.9999,177 h 24 c 88,0 216,104 251.0001,201.9999 27,79.0001 27,418.0001 -1.0001,498.0001 -36,102 -145,188 -256,201.9999 l -24.9999,3 -3,298.0001 -2.0001,297 h 25 c 90,0 216,101 251,200.9999 28,79.0001 28,418.0001 0,497.0001 -35,103 -159,202 -249.9999,202 h -24 l -4.0001,178 c -4.9999,209 -18,252 -94,332 -72,75 -120.9999,90 -328.9999,101 -93,4 -173.0001,8 -177,8 -5.0001,1 -8.0001,12 -8.0001,26 0,89 -102,217 -200,251 -46.9999,16 -84,19 -250,19 -241,0 -276,-9 -361,-94 -54,-55 -81.9999,-110 -90.9999,-181 l -3,-25 -220.0001,-3 c -121,-2 -253,0 -292,3 -69,6 -73,8 -73,31 0,84 -96,209 -191,246 -47,19 -77,22 -234,24 -99,1 -191,0 -205,-2 z m 283,-362 c 29,-30 32,-38 32,-97 0,-60 -3,-67 -33,-97 -30,-31 -37,-33 -102,-33 -65,0 -72,2 -101,31 -50,51 -54,150 -6,195 34,32 57,39 120,36 50,-3 62,-8 90,-35 z m 1462,24 c 47.0001,-20 68.0001,-65 63,-133 -3.9999,-44 -11,-60 -36.9999,-86 -29.0001,-30 -36,-32 -101.0001,-32 -65,0 -72,2 -102,33 -30,30 -33,37 -33,96 0,55 4,68 25,91 14,15 34,31 45,35 32,14 103,11 140,-4 z m -2014.9999,-304 c 0,-11 9,-45 20,-77 27,-78 83.9999,-135 169.9999,-166 61,-22 78,-24 265,-24 185,0 204,2 258,24 101,40 187,149 187,236 v 25 h 295 295 v -25 c 0,-87 86,-196 187,-236 54,-22 73,-24 258,-24 187.0001,0 204,2 267,24 85.0001,31 140,86 168,167 11,31 20,66 20,77 0,18 5.0001,19 58,13 113,-13 221,-121 230,-231 4,-54 4,-55 -22,-55 -91,0 -217,-100 -251.9999,-201 -28.0001,-80 -28.0001,-418 0,-498.0001 34.9999,-99.9999 160.9999,-200.9999 250.9999,-200.9999 h 25 v -300 -300 h -25 c -88.9999,0 -217,-102 -250.9999,-200 -16.0001,-47.0001 -19.0001,-84 -19.0001,-250 0,-243 9,-275.0001 97.0001,-361 58.9999,-57 125.9999,-89 187.9999,-89 22,0 22,-3 16,-57 -13,-117 -116,-217.00001 -235,-229.00001 l -64,-7.00005 7,26.00002 c 6,27.00004 -28,137.00004 -43,137.00004 -11,0 -81,69 -81,79.9999 0,5.0001 -26,19.0001 -57,32.0001 -54,21 -72.9999,23 -263,23 -175,0 -213,-3 -259,-19.0001 -100,-34.9999 -201,-160.9999 -201,-250.99991 v -25.00005 h -295 -295 v 25.00005 c 0,90.00001 -101,216.00001 -201,250.99991 -80,28.0001 -418,28.0001 -498,0 -101,-34.9999 -200.9999,-160.9999 -200.9999,-251.99996 0,-27 0,-27 -57.0001,-19.99995 -113.9999,12.99997 -216,115.99991 -228.9999,229.00001 -7,57 -7,57 20,57 91,0 217,99.9999 251.9999,201 28.0001,80 28.0001,418 0,498 -34.9999,100 -160.9999,201 -250.9999,201 h -25 v 300 300 h 25 c 90,0 216,101 250.9999,200.9999 28.0001,80.0001 28.0001,418.0001 0,498.0001 -34.9999,101 -160.9999,201 -251.9999,201 -27,0 -27,0 -20,58 14,123 128,227 253.9999,231 25.0001,1 32.0001,-3 32.0001,-17 z m -347,-620 c 30,-30 31.9999,-37 31.9999,-102 0,-65 -1.9999,-72 -33,-102.0001 -29.9999,-30.9999 -37,-33 -101.9999,-33 -65.0001,0 -72.0001,2.0001 -102.0001,33 -31,30.0001 -33,37.0001 -33,101.0001 0,60 3,73 25.0001,96 34.9999,38 56.9999,45 122.9999,42 50.0001,-3 62.0001,-8 90.0001,-35 z m 3289.9999,0 c 30,-30 32.0001,-37 32.0001,-102 0,-65 -2.0001,-72 -33,-102.0001 -30,-30.9999 -37.0001,-33 -102,-33 -65.0001,0 -72,2.0001 -102,33 -31.0001,30.0001 -33.0001,37.0001 -33.0001,101.0001 0,60 3,73 25,96 35.0001,38 57,45 123,42 50.0001,-3 62.0001,-8 90,-35 z m -3289.9999,-1500 c 30,-30 31.9999,-37 31.9999,-102 0,-65.0001 -1.9999,-72 -33,-102 -29.9999,-31 -37,-33 -101.9999,-33 -65.0001,0 -72.0001,2 -102.0001,33 -31,30 -33,36.9999 -33,101 0,60 3,73 25.0001,96 34.9999,38 56.9999,45 122.9999,42 50.0001,-3 62.0001,-8 90.0001,-35 z m 3274.9999,18 c 18,-11 37,-32 42,-46 15,-38 12,-121.0001 -5,-153 -34.9999,-69 -159,-81 -217.9999,-22.0001 -30,29.0001 -32.0001,36 -32.0001,100.0001 0,60 3,73 25,96 14,15 34.0001,31 45,35 37.0001,16 109.0001,11 143,-10 z m -2375,-918.00004 c 30,-30 32,-36.99998 32,-102.00001 0,-64.99995 -2,-72 -33,-102 -30,-30.99997 -37,-33 -102,-33 -65,0 -72,2.00003 -102,33 -31,30 -33,37.00005 -33,101.00003 0,60 3,72.99998 25,96 35,37.99995 57,45 123,42 50,-3 62,-8.00002 90,-35.00002 z m 1490,-0.99998 c 30,-29.00002 32,-36 32,-101.00003 0,-64.99995 -2,-72 -33,-102 -30,-30.99997 -36.9999,-33 -102,-33 -64,0 -72,2.00003 -99,30 -33,33 -34,37.00005 -32,112.00006 1,39.99997 7,57.99997 28,82.99995 35,42 57,50.00002 121,47.00002 44.0001,-3 59.0001,-9 85,-36 z"
         inkscape:connector-curvature="0" />
      <path
         style="fill:#292961;fill-opacity:1;stroke-width:1"
         id="path4-5"
         d="m -3887.0466,9402.8588 c -149,-28 -255,-135 -272,-274 l -3,-25 -175,-6 c -210,-7 -254,-20 -331,-98 -79,-78 -92,-121 -97,-333 l -4,-178 h -24 c -89,0 -215,-101 -250,-201 -28,-80 -28,-418 0,-498.0001 35,-99.9999 161,-200.9999 251,-200.9999 h 25 v -300 -300 h -25 c -90,0 -216,-101 -251,-201 -28,-80 -28,-418 0,-498 35,-100 161,-201 250,-201 h 24 l 4,-177.0001 c 5,-213 18,-255.9999 97,-333.9999 78,-79 121,-92.0001 334,-97 l 177,-4.0001 v -24 c 0,-88.9999 101,-214.9999 201,-250 80,-27.9999 418,-27.9999 498,0 100,35.0001 201,161.0001 201,251.0001 v 24.9999 h 295 295 v -24.9999 c 0,-90 101,-216 201,-251.0001 79,-27.9999 428.0001,-27.9999 507,-0.9999 98.0001,34.9999 202,162.9999 202,250.9999 v 24 l 178.0001,4.0001 c 211.9999,4.9999 254.9999,18 332.9999,97 79.0001,78 92,120.9999 97.0001,333.9999 l 3.9999,177.0001 h 24 c 88,0 215.99999,104 251.00009,201.9999 27,79.0001 27,418.0001 -1.0001,498.0001 -36,102 -144.99999,188 -255.99999,201.9999 l -24.9999,3 -3,298.0001 -2.0001,297 h 25 c 90,0 215.99999,101 250.99999,200.9999 28,79.0001 28,418.0001 0,497.0001 -35,103 -158.99999,202 -249.99989,202 h -24 l -4.0001,178 c -4.9999,209 -18,252 -94,332 -72,75 -120.9999,90 -328.9999,101 -93,4 -173.0001,8 -177,8 -5.0001,1 -8.0001,12 -8.0001,26 0,89 -102,217 -200,251 -46.9999,16 -84,19 -250,19 -241,0 -276,-9 -361,-94 -54,-55 -81.9999,-110 -90.9999,-181 l -3,-25 -220.0001,-3 c -121,-2 -253,0 -292,3 -69,6 -73,8 -73,31 0,84 -96,209 -191,246 -47,19 -77,22 -234,24 -99,1 -191,0 -205,-2 z m 283,-362 c 29,-30 32,-38 32,-97 0,-60 -3,-67 -33,-97 -30,-31 -37,-33 -102,-33 -65,0 -72,2 -101,31 -50,51 -54,150 -6,195 34,32 57,39 120,36 50,-3 62,-8 90,-35 z m 1462,24 c 47.0001,-20 68.0001,-65 63,-133 -3.9999,-44 -11,-60 -36.9999,-86 -29.0001,-30 -36,-32 -101.0001,-32 -65,0 -72,2 -102,33 -30,30 -33,37 -33,96 0,55 4,68 25,91 14,15 34,31 45,35 32,14 103,11 140,-4 z m -2015,-304 c 0,-11 9,-45 20,-77 27,-78 84,-135 170,-166 61,-22 78,-24 265,-24 185,0 204,2 258,24 101,40 187,149 187,236 v 25 h 295 295 v -25 c 0,-87 86,-196 187,-236 54,-22 73,-24 258,-24 187.0001,0 204,2 267,24 85.0001,31 140,86 168,167 11,31 20,66 20,77 0,18 5.0001,19 58,13 113,-13 221,-121 230,-231 4,-54 4,-55 -22,-55 -91,0 -217,-100 -251.9999,-201 -28.0001,-80 -28.0001,-418 0,-498.0001 34.9999,-99.9999 160.9999,-200.9999 250.9999,-200.9999 h 25 v -300 -300 h -25 c -88.9999,0 -217,-102 -250.9999,-200 -16.0001,-47.0001 -19.0001,-84 -19.0001,-250 0,-243 9,-275.0001 97.0001,-361 58.9999,-57 125.9999,-89 187.9999,-89 22,0 22,-3 16,-57 -13,-117.0001 -116,-217 -235,-229 l -64,-7.0001 7,26 c 6,27 -28,137.0001 -43,137.0001 -11,0 -81,69 -81,79.9999 0,5.0001 -26,19.0001 -57,32.0001 -54,21 -72.9999,23 -263,23 -175,0 -213,-3 -259,-19.0001 -100,-34.9999 -201,-160.9999 -201,-250.9999 v -25.0001 h -295 -295 v 25.0001 c 0,90 -101,216 -201,250.9999 -80,28.0001 -418,28.0001 -498,0 -101,-34.9999 -201,-160.9999 -201,-252 0,-27 0,-27 -57,-19.9999 -114,12.9999 -216,115.9999 -229,229 -7,57 -7,57 20,57 91,0 217,99.9999 252,201 28,80 28,418 0,498 -35,100 -161,201 -251,201 h -25 v 300 300 h 25 c 90,0 216,101 251,200.9999 28,80.0001 28,418.0001 0,498.0001 -35,101 -161,201 -252,201 -27,0 -27,0 -20,58 14,123 128,227 254,231 25,1 32,-3 32,-17 z m -347,-620 c 30,-30 32,-37 32,-102 0,-65 -2,-72 -33,-102.0001 -30,-30.9999 -37,-33 -102,-33 -65,0 -72,2.0001 -102,33 -31,30.0001 -33,37.0001 -33,101.0001 0,60 3,73 25,96 35,38 57,45 123,42 50,-3 62,-8 90,-35 z m 3290,0 c 30,-30 32.0001,-37 32.0001,-102 0,-65 -2.0001,-72 -33,-102.0001 -30,-30.9999 -37.0001,-33 -102,-33 -65.0001,0 -72,2.0001 -102,33 -31.0001,30.0001 -33.0001,37.0001 -33.0001,101.0001 0,60 3,73 25,96 35.0001,38 57,45 123,42 50.0001,-3 62.0001,-8 90,-35 z m -3290,-1500 c 30,-30 32,-37 32,-102 0,-65.0001 -2,-72 -33,-102 -30,-31 -37,-33 -102,-33 -65,0 -72,2 -102,33 -31,30 -33,36.9999 -33,101 0,60 3,73 25,96 35,38 57,45 123,42 50,-3 62,-8 90,-35 z m 3275,18 c 18,-11 37,-32 42,-46 15,-38 12,-121.0001 -5,-153 -34.9999,-69 -159,-81 -217.9999,-22.0001 -30,29.0001 -32.0001,36 -32.0001,100.0001 0,60 3,73 25,96 14,15 34.0001,31 45,35 37.0001,16 109.0001,11 143,-10 z m -2375,-918.0001 c 30,-30 32,-36.9999 32,-102 0,-64.9999 -2,-72 -33,-102 -30,-30.9999 -37,-33 -102,-33 -65,0 -72,2.0001 -102,33 -31,30 -33,37.0001 -33,101.0001 0,60 3,72.9999 25,96 35,37.9999 57,45 123,42 50,-3 62,-8.0001 90,-35.0001 z m 1490,-0.9999 c 30,-29.0001 32,-36 32,-101.0001 0,-64.9999 -2,-72 -33,-102 -30,-30.9999 -36.9999,-33 -102,-33 -64,0 -72,2.0001 -99,30 -33,33 -34,37.0001 -32,112.0001 1,40 7,58 28,82.9999 35,42 57,50.0001 121,47.0001 44.0001,-3 59.0001,-9 85,-36 z"
         inkscape:connector-curvature="0" />
      <path
         style="fill:#292961;fill-opacity:1;stroke-width:1"
         id="path4-35"
         d="m -8659.0466,9392.8588 c -149,-28 -255,-135 -272.0001,-274 l -3,-25 -174.9999,-6 c -210,-7 -254,-20 -331,-98 -79,-78 -92,-121 -97,-333 l -4,-178 h -24 c -89,0 -215,-101 -250,-201 -28,-80 -28,-418 0,-498.0001 35,-99.9999 161,-200.9999 251,-200.9999 h 25 v -300 -300 h -25 c -90,0 -216,-101 -251,-201 -28,-80 -28,-418 0,-498 35,-100 161,-201 250,-201 h 24 l 4,-177 c 5,-213 18,-256 97,-334 78,-79 121,-92 334,-97 l 177,-4 v -24 c 0,-89 101,-215 201,-250 80,-28 418,-28 498,0 100,35 201,161 201,251 v 25 h 295 295 v -25 c 0,-90 101,-216 201,-251 79,-28 428.0001,-28 507,-1 98.0001,34.9999 202,163 202,251 v 24 l 178.0001,4 c 211.9999,5 254.9999,18 332.9999,97 79.0001,78 92,121 97.0001,334 l 3.9999,177 h 24 c 88,0 216,104 251.0001,201.9999 27,79.0001 27,418.0001 -1.0001,498.0001 -36,102 -145,188 -256,201.9999 l -24.9999,3 -3,298.0001 -2.0001,297 h 25 c 90,0 216,101 251,200.9999 28,79.0001 28,418.0001 0,497.0001 -35,103 -159,202 -249.9999,202 h -24 l -4.0001,178 c -4.9999,209 -18,252 -94,332 -72,75 -120.9999,90 -328.9999,101 -93,4 -173.0001,8 -177,8 -5.0001,1 -8.0001,12 -8.0001,26 0,89 -102,217 -200,251 -46.9999,16 -84,19 -250,19 -241,0 -276,-9 -361,-94 -54,-55 -81.9999,-110 -90.9999,-181 l -3,-25 -220.0001,-3 c -121,-2 -253,0 -292,3 -69,6 -73,8 -73,31 0,84 -96,209 -191,246 -47,19 -77,22 -234,24 -99,1 -191,0 -205,-2 z m 283,-362 c 29,-30 32,-38 32,-97 0,-60 -3,-67 -33,-97 -30,-31 -37,-33 -102,-33 -65,0 -72,2 -101,31 -50,51 -54,150 -6,195 34,32 57,39 120,36 50,-3 62,-8 90,-35 z m 1462,24 c 47.0001,-20 68.0001,-65 63,-133 -3.9999,-44 -11,-60 -36.9999,-86 -29.0001,-30 -36,-32 -101.0001,-32 -65,0 -72,2 -102,33 -30,30 -33,37 -33,96 0,55 4,68 25,91 14,15 34,31 45,35 32,14 103,11 140,-4 z m -2015,-304 c 0,-11 9,-45 20,-77 27,-78 84,-135 170,-166 61,-22 78,-24 265,-24 185,0 204,2 258,24 101,40 187,149 187,236 v 25 h 295 295 v -25 c 0,-87 86,-196 187,-236 54,-22 73,-24 258,-24 187.0001,0 204,2 267,24 85.0001,31 140,86 168,167 11,31 20,66 20,77 0,18 5.0001,19 58,13 113,-13 221,-121 230,-231 4,-54 4,-55 -22,-55 -91,0 -217,-100 -251.9999,-201 -28.0001,-80 -28.0001,-418 0,-498.0001 34.9999,-99.9999 160.9999,-200.9999 250.9999,-200.9999 h 25 v -300 -300 h -25 c -88.9999,0 -217,-102 -250.9999,-200 -16.0001,-47.0001 -19.0001,-84 -19.0001,-250 0,-243 9,-275.0001 97.0001,-361 58.9999,-57 125.9999,-89 187.9999,-89 22,0 22,-3 16,-57 -13,-117 -116,-217 -235,-229 l -64,-7.0001 7,26.0001 c 6,27 -28,137 -43,137 -11,0 -81,69 -81,79.9999 0,5.0001 -26,19.0001 -57,32.0001 -54,21 -72.9999,23 -263,23 -175,0 -213,-3 -259,-19.0001 -100,-34.9999 -201,-160.9999 -201,-250.9999 v -25.0001 h -295 -295 v 25.0001 c 0,90 -101,216 -201,250.9999 -80,28.0001 -418,28.0001 -498,0 -101,-34.9999 -201,-160.9999 -201,-252 0,-27 0,-27 -57,-19.9999 -114,13 -216,115.9999 -229,229 -7,57 -7,57 20,57 91,0 217,99.9999 251.9999,201 28.0001,80 28.0001,418 0,498 -34.9999,100 -160.9999,201 -250.9999,201 h -25 v 300 300 h 25 c 90,0 216,101 250.9999,200.9999 28.0001,80.0001 28.0001,418.0001 0,498.0001 -34.9999,101 -160.9999,201 -251.9999,201 -27,0 -27,0 -20,58 14,123 128,227 253.9999,231 25.0001,1 32.0001,-3 32.0001,-17 z m -347,-620 c 30,-30 32,-37 32,-102 0,-65 -2,-72 -33,-102.0001 -30,-30.9999 -37,-33 -102,-33 -65,0 -72,2.0001 -102,33 -31,30.0001 -33,37.0001 -33,101.0001 0,60 3,73 25,96 35,38 57,45 123,42 50,-3 62,-8 90,-35 z m 3290,0 c 30,-30 32.0001,-37 32.0001,-102 0,-65 -2.0001,-72 -33,-102.0001 -30,-30.9999 -37.0001,-33 -102,-33 -65.0001,0 -72,2.0001 -102,33 -31.0001,30.0001 -33.0001,37.0001 -33.0001,101.0001 0,60 3,73 25,96 35.0001,38 57,45 123,42 50.0001,-3 62.0001,-8 90,-35 z m -3290,-1500 c 30,-30 32,-37 32,-102 0,-65.0001 -2,-72 -33,-102 -30,-31 -37,-33 -102,-33 -65,0 -72,2 -102,33 -31,30 -33,36.9999 -33,101 0,60 3,73 25,96 35,38 57,45 123,42 50,-3 62,-8 90,-35 z m 3275,18 c 18,-11 37,-32 42,-46 15,-38 12,-121.0001 -5,-153 -34.9999,-69 -159,-81 -217.9999,-22.0001 -30,29.0001 -32.0001,36 -32.0001,100.0001 0,60 3,73 25,96 14,15 34.0001,31 45,35 37.0001,16 109.0001,11 143,-10 z m -2375,-918 c 30,-30 32,-37 32,-102 0,-65 -2,-72 -33,-102 -30,-31 -37,-33 -102,-33 -65,0 -72,2 -102,33 -31,30 -33,37 -33,101 0,60 3,73 25,96 35,37.9999 57,45 123,42 50,-3 62,-8 90,-35 z m 1490,-1 c 30,-29 32,-36 32,-101 0,-65 -2,-72 -33,-102 -30,-31 -36.9999,-33 -102,-33 -64,0 -72,2 -99,30 -33,33 -34,37 -32,112 1,40 7,58 28,83 35,42 57,50 121,47 44.0001,-3 59.0001,-9 85,-36 z"
         inkscape:connector-curvature="0" />
    </g>
  </g>
</svg>
